<svg width="45" height="46" viewBox="0 0 45 46" fill="none" xmlns="http://www.w3.org/2000/svg">
<path d="M22.4963 34.0892L14.0186 22.1174C12.631 20.4791 11.7374 18.4802 11.4418 16.3536C11.1463 14.227 11.4611 12.0602 12.3494 10.1055C13.2377 8.15086 14.6631 6.48882 16.4596 5.31295C18.256 4.13709 20.3495 3.49579 22.4963 3.46375C25.4722 3.49315 28.3151 4.70073 30.4025 6.82199C32.4898 8.94325 33.6514 11.8053 33.6328 14.7812C33.634 17.3774 32.7501 19.8963 31.1271 21.9226L22.4963 34.0892ZM22.4963 6.24788C20.2577 6.27359 18.1207 7.18666 16.5547 8.7866C14.9887 10.3865 14.1216 12.5426 14.1439 14.7812C14.1544 16.8243 14.8894 18.7974 16.2181 20.3495L22.4963 29.2448L28.9416 20.1685C30.1667 18.6393 30.8388 16.7407 30.8487 14.7812C30.871 12.5426 30.0039 10.3865 28.4379 8.7866C26.8719 7.18666 24.735 6.27359 22.4963 6.24788Z" fill="url(#paint0_linear_0_11925)"/>
<path d="M22.496 15.9923C24.0337 15.9923 25.2802 14.7458 25.2802 13.2082C25.2802 11.6706 24.0337 10.4241 22.496 10.4241C20.9584 10.4241 19.7119 11.6706 19.7119 13.2082C19.7119 14.7458 20.9584 15.9923 22.496 15.9923Z" fill="url(#paint1_linear_0_11925)"/>
<path d="M39.2011 17.3844H36.4169V20.1685H39.2011V39.6575H5.79146V20.1685H8.57559V17.3844H5.79146C5.05306 17.3844 4.3449 17.6777 3.82278 18.1999C3.30065 18.722 3.00732 19.4301 3.00732 20.1685V39.6575C3.00732 40.3959 3.30065 41.104 3.82278 41.6262C4.3449 42.1483 5.05306 42.4416 5.79146 42.4416H39.2011C39.9395 42.4416 40.6476 42.1483 41.1697 41.6262C41.6919 41.104 41.9852 40.3959 41.9852 39.6575V20.1685C41.9852 19.4301 41.6919 18.722 41.1697 18.1999C40.6476 17.6777 39.9395 17.3844 39.2011 17.3844Z" fill="url(#paint2_linear_0_11925)"/>
<defs>
<linearGradient id="paint0_linear_0_11925" x1="18.8648" y1="54.7934" x2="43.7562" y2="42.9654" gradientUnits="userSpaceOnUse">
<stop stop-color="#7D7AED"/>
<stop offset="1" stop-color="#C3C1FF"/>
</linearGradient>
<linearGradient id="paint1_linear_0_11925" x1="21.5924" y1="19.7567" x2="26.9357" y2="16.2696" gradientUnits="userSpaceOnUse">
<stop stop-color="#7D7AED"/>
<stop offset="1" stop-color="#C3C1FF"/>
</linearGradient>
<linearGradient id="paint2_linear_0_11925" x1="16.171" y1="59.3814" x2="42.4359" y2="32.7176" gradientUnits="userSpaceOnUse">
<stop stop-color="#7D7AED"/>
<stop offset="1" stop-color="#C3C1FF"/>
</linearGradient>
</defs>
</svg>
