<svg width="47" height="47" viewBox="0 0 47 47" fill="none" xmlns="http://www.w3.org/2000/svg">
<path fill-rule="evenodd" clip-rule="evenodd" d="M21.7833 3.01917H25.8075C29.3096 3.01917 32.0839 3.01917 34.2541 3.31069C36.4872 3.61174 38.2954 4.24433 39.7226 5.66957C41.1478 7.09671 41.7804 8.90493 42.0815 11.1381C42.373 13.3102 42.373 16.0826 42.373 19.5847V27.4197C42.373 30.9218 42.373 33.696 42.0815 35.8663C41.7804 38.0994 41.1478 39.9076 39.7226 41.3348C38.2954 42.76 36.4872 43.3926 34.2541 43.6936C32.0819 43.9852 29.3096 43.9852 25.8075 43.9852H21.7833C18.2812 43.9852 15.5069 43.9852 13.3367 43.6936C11.1035 43.3926 9.29532 42.76 7.86818 41.3348C6.44294 39.9076 5.81035 38.0994 5.5093 35.8663C5.21777 33.6941 5.21777 30.9218 5.21777 27.4197V19.5847C5.21777 16.0826 5.21777 13.3083 5.5093 11.1381C5.81035 8.90493 6.44294 7.09671 7.86818 5.66957C9.29532 4.24433 11.1035 3.61174 13.3367 3.31069C15.5088 3.01917 18.2812 3.01917 21.7833 3.01917ZM13.7158 6.14401C11.799 6.40124 10.6939 6.88521 9.88599 7.69119C9.08192 8.49718 8.59794 9.60231 8.34072 11.5191C8.07777 13.4779 8.07396 16.0578 8.07396 19.6914V27.313C8.07396 30.9465 8.07777 33.5284 8.34072 35.4871C8.59794 37.402 9.08192 38.5072 9.8879 39.3131C10.6939 40.1191 11.799 40.6031 13.7158 40.8603C15.6746 41.1233 18.2545 41.1271 21.8881 41.1271H25.6989C29.3325 41.1271 31.9143 41.1233 33.873 40.8603C35.7879 40.6031 36.8931 40.1191 37.6991 39.3131C38.505 38.5072 38.989 37.402 39.2462 35.4852C39.5092 33.5284 39.513 30.9465 39.513 27.313V19.6914C39.513 16.0578 39.5092 13.4779 39.2462 11.5172C38.989 9.60231 38.505 8.49718 37.6991 7.69119C36.8931 6.88521 35.7879 6.40124 33.8711 6.14401C31.9143 5.88107 29.3325 5.87726 25.6989 5.87726H21.8881C18.2545 5.87726 15.6765 5.88107 13.7158 6.14401ZM14.7448 19.6914C14.7448 19.3124 14.8953 18.9489 15.1633 18.6809C15.4313 18.4129 15.7948 18.2623 16.1738 18.2623H31.417C31.796 18.2623 32.1595 18.4129 32.4275 18.6809C32.6954 18.9489 32.846 19.3124 32.846 19.6914C32.846 20.0704 32.6954 20.4339 32.4275 20.7019C32.1595 20.9699 31.796 21.1204 31.417 21.1204H16.1738C15.7948 21.1204 15.4313 20.9699 15.1633 20.7019C14.8953 20.4339 14.7448 20.0704 14.7448 19.6914ZM14.7448 27.313C14.7448 26.934 14.8953 26.5705 15.1633 26.3025C15.4313 26.0345 15.7948 25.8839 16.1738 25.8839H25.7008C26.0798 25.8839 26.4433 26.0345 26.7113 26.3025C26.9793 26.5705 27.1298 26.934 27.1298 27.313C27.1298 27.692 26.9793 28.0554 26.7113 28.3234C26.4433 28.5914 26.0798 28.742 25.7008 28.742H16.1738C15.7948 28.742 15.4313 28.5914 15.1633 28.3234C14.8953 28.0554 14.7448 27.692 14.7448 27.313Z" fill="url(#paint0_linear_0_11933)"/>
<defs>
<linearGradient id="paint0_linear_0_11933" x1="17.7659" y1="71.68" x2="55.4148" y2="49.3952" gradientUnits="userSpaceOnUse">
<stop stop-color="#7D7AED"/>
<stop offset="1" stop-color="#C3C1FF"/>
</linearGradient>
</defs>
</svg>
