<svg width="51" height="50" viewBox="0 0 51 50" fill="none" xmlns="http://www.w3.org/2000/svg">
<path d="M9.08107 6.30591H41.933C42.4775 6.30591 42.9998 6.52223 43.3848 6.90729C43.7699 7.29235 43.9862 7.8146 43.9862 8.35915V11.6156C43.9861 12.1601 43.7697 12.6823 43.3846 13.0672L30.2151 26.2367C29.83 26.6217 29.6136 27.1439 29.6135 27.6884V40.6341C29.6135 40.9462 29.5423 41.2542 29.4054 41.5347C29.2685 41.8151 29.0695 42.0607 28.8234 42.2527C28.5774 42.4447 28.2908 42.5781 27.9855 42.6428C27.6801 42.7074 27.3641 42.7016 27.0613 42.6257L22.9548 41.5991C22.5108 41.4879 22.1167 41.2315 21.8351 40.8706C21.5535 40.5098 21.4005 40.0652 21.4005 39.6075V27.6884C21.4004 27.1439 21.184 26.6217 20.7989 26.2367L7.62943 13.0672C7.24435 12.6823 7.02795 12.1601 7.02783 11.6156V8.35915C7.02783 7.8146 7.24416 7.29235 7.62921 6.90729C8.01427 6.52223 8.53652 6.30591 9.08107 6.30591Z" stroke="url(#paint0_linear_0_11957)" stroke-width="3.07986" stroke-linecap="round" stroke-linejoin="round"/>
<defs>
<linearGradient id="paint0_linear_0_11957" x1="19.5094" y1="67.2827" x2="54.6392" y2="43.9927" gradientUnits="userSpaceOnUse">
<stop stop-color="#7D7AED"/>
<stop offset="1" stop-color="#C3C1FF"/>
</linearGradient>
</defs>
</svg>
