<svg width="51" height="51" viewBox="0 0 51 51" fill="none" xmlns="http://www.w3.org/2000/svg">
<path d="M19.1261 22.3126C19.1261 21.8899 19.294 21.4845 19.5929 21.1856C19.8918 20.8867 20.2972 20.7188 20.7199 20.7188H30.2828C30.7055 20.7188 31.1109 20.8867 31.4098 21.1856C31.7087 21.4845 31.8766 21.8899 31.8766 22.3126C31.8766 22.7353 31.7087 23.1407 31.4098 23.4396C31.1109 23.7385 30.7055 23.9064 30.2828 23.9064H20.7199C20.2972 23.9064 19.8918 23.7385 19.5929 23.4396C19.294 23.1407 19.1261 22.7353 19.1261 22.3126ZM20.7199 27.094C20.2972 27.094 19.8918 27.2619 19.5929 27.5608C19.294 27.8597 19.1261 28.2651 19.1261 28.6878C19.1261 29.1105 19.294 29.5159 19.5929 29.8148C19.8918 30.1137 20.2972 30.2817 20.7199 30.2817H27.0952C27.5179 30.2817 27.9233 30.1137 28.2222 29.8148C28.521 29.5159 28.689 29.1105 28.689 28.6878C28.689 28.2651 28.521 27.8597 28.2222 27.5608C27.9233 27.2619 27.5179 27.094 27.0952 27.094H20.7199ZM6.37561 25.5002C6.37643 21.2895 7.76677 17.1968 10.331 13.8569C12.8952 10.517 16.4899 8.11664 20.5575 7.02821C24.6251 5.93977 28.9382 6.22408 32.8277 7.83704C36.7172 9.45 39.9657 12.3014 42.0693 15.949C44.1729 19.5966 45.014 23.8364 44.4621 28.0108C43.9101 32.1852 41.9961 36.0608 39.0168 39.0363C36.0375 42.0119 32.1596 43.9211 27.9845 44.4678C23.8095 45.0145 19.5707 44.1681 15.9257 42.0599L8.47307 44.5463C8.19773 44.6382 7.90251 44.6532 7.61928 44.5896C7.33604 44.526 7.07555 44.3863 6.86591 44.1855C6.65627 43.9848 6.50544 43.7305 6.42971 43.4503C6.35398 43.1701 6.35621 42.8745 6.43618 42.5954L8.70576 34.6551C7.17577 31.8463 6.37462 28.6987 6.37561 25.5002ZM25.5013 9.56211C22.6873 9.56193 19.9233 10.3068 17.4904 11.7211C15.0575 13.1354 13.0424 15.1686 11.65 17.614C10.2576 20.0595 9.53749 22.83 9.56288 25.644C9.58827 28.458 10.3583 31.2151 11.7946 33.635C11.9051 33.822 11.9762 34.0295 12.0036 34.2449C12.031 34.4604 12.0141 34.6791 11.954 34.8878L10.3315 40.5617L15.6165 38.8022C15.841 38.7273 16.0793 38.7033 16.3142 38.7319C16.5491 38.7606 16.7746 38.8412 16.9745 38.9679C19.0632 40.2898 21.4308 41.1077 23.8901 41.3571C26.3494 41.6064 28.833 41.2802 31.1445 40.4044C33.4561 39.5287 35.5322 38.1272 37.2089 36.3109C38.8855 34.4945 40.1167 32.3131 40.8052 29.939C41.4936 27.5649 41.6204 25.0632 41.1755 22.6317C40.7306 20.2001 39.7262 17.9054 38.2418 15.9289C36.7573 13.9524 34.8335 12.3482 32.6223 11.2432C30.4111 10.1382 27.9732 9.56269 25.5013 9.56211Z" fill="url(#paint0_linear_0_11939)"/>
<defs>
<linearGradient id="paint0_linear_0_11939" x1="19.2932" y1="70.4894" x2="55.9997" y2="46.5333" gradientUnits="userSpaceOnUse">
<stop stop-color="#7D7AED"/>
<stop offset="1" stop-color="#C3C1FF"/>
</linearGradient>
</defs>
</svg>
