<svg width="42" height="43" viewBox="0 0 42 43" fill="none" xmlns="http://www.w3.org/2000/svg">
<path d="M5.39235 30.4116C5.39235 31.9555 6.00565 33.4361 7.09733 34.5278C8.18901 35.6195 9.66965 36.2328 11.2135 36.2328C11.2135 37.5194 11.7246 38.7532 12.6343 39.663C13.5441 40.5727 14.7779 41.0838 16.0645 41.0838C17.3511 41.0838 18.5849 40.5727 19.4946 39.663C20.4044 38.7532 20.9155 37.5194 20.9155 36.2328C20.9155 37.5194 21.4265 38.7532 22.3363 39.663C23.246 40.5727 24.4799 41.0838 25.7664 41.0838C27.053 41.0838 28.2869 40.5727 29.1966 39.663C30.1063 38.7532 30.6174 37.5194 30.6174 36.2328C31.6494 36.2329 32.6629 35.9586 33.554 35.4381C34.4451 34.9176 35.1818 34.1695 35.6887 33.2706C36.1955 32.3716 36.4542 31.354 36.4384 30.3222C36.4225 29.2903 36.1326 28.2812 35.5984 27.3982C36.9265 27.1416 38.1239 26.4306 38.9848 25.3873C39.8458 24.344 40.3168 23.0335 40.3168 21.6809C40.3168 20.3282 39.8458 19.0177 38.9848 17.9744C38.1239 16.9311 36.9265 16.2201 35.5984 15.9635C36.1331 15.0805 36.4234 14.0712 36.4395 13.039C36.4556 12.0069 36.197 10.989 35.6901 10.0897C35.1832 9.19044 34.4463 8.44214 33.5549 7.92152C32.6635 7.4009 31.6497 7.12668 30.6174 7.12697C30.6174 5.84042 30.1063 4.60655 29.1966 3.69682C28.2869 2.78708 27.053 2.276 25.7664 2.276C24.4799 2.276 23.246 2.78708 22.3363 3.69682C21.4265 4.60655 20.9155 5.84042 20.9155 7.12697C20.9155 5.84042 20.4044 4.60655 19.4946 3.69682C18.5849 2.78708 17.3511 2.276 16.0645 2.276C14.7779 2.276 13.5441 2.78708 12.6343 3.69682C11.7246 4.60655 11.2135 5.84042 11.2135 7.12697C10.1815 7.12689 9.16805 7.40115 8.27694 7.92168C7.38583 8.4422 6.64911 9.19026 6.14227 10.0892C5.63543 10.9882 5.37669 12.0057 5.39255 13.0376C5.40841 14.0695 5.69831 15.0786 6.23254 15.9616C4.90442 16.2182 3.70708 16.9292 2.84608 17.9725C1.98509 19.0157 1.51416 20.3262 1.51416 21.6789C1.51416 23.0316 1.98509 24.3421 2.84608 25.3854C3.70708 26.4287 4.90442 27.1397 6.23254 27.3963C5.68242 28.3058 5.39185 29.3487 5.39235 30.4116Z" stroke="url(#paint0_linear_0_11918)" stroke-width="2.91058" stroke-linecap="round" stroke-linejoin="round"/>
<path d="M12.1841 26.5308L15.7583 15.8082C15.848 15.5406 16.0195 15.3079 16.2486 15.1431C16.4777 14.9783 16.7528 14.8896 17.0351 14.8896C17.3173 14.8896 17.5924 14.9783 17.8215 15.1431C18.0506 15.3079 18.2221 15.5406 18.3118 15.8082L21.886 26.5308M27.7072 14.8884V26.5308M14.1245 22.65H19.9456" stroke="url(#paint1_linear_0_11918)" stroke-width="2.91058" stroke-linecap="round" stroke-linejoin="round"/>
<defs>
<linearGradient id="paint0_linear_0_11918" x1="14.6186" y1="67.3196" x2="51.8565" y2="43.0206" gradientUnits="userSpaceOnUse">
<stop stop-color="#7D7AED"/>
<stop offset="1" stop-color="#C3C1FF"/>
</linearGradient>
<linearGradient id="paint1_linear_0_11918" x1="17.4266" y1="34.4015" x2="29.5143" y2="23.8832" gradientUnits="userSpaceOnUse">
<stop stop-color="#7D7AED"/>
<stop offset="1" stop-color="#C3C1FF"/>
</linearGradient>
</defs>
</svg>
