<svg width="52" height="53" viewBox="0 0 52 53" fill="none" xmlns="http://www.w3.org/2000/svg">
<path fill-rule="evenodd" clip-rule="evenodd" d="M12.3451 9.97493C8.7649 11.6107 6.14285 15.5039 6.14285 20.1459C6.14285 24.8871 8.08511 28.5429 10.8647 31.6764C13.1587 34.2574 15.934 36.3982 18.6402 38.4829C19.2847 38.9793 19.9213 39.4742 20.5501 39.9677C21.6852 40.8633 22.6973 41.6466 23.6749 42.2185C24.6525 42.7904 25.4359 43.0494 26.1049 43.0494C26.7739 43.0494 27.5594 42.7904 28.5349 42.2185C29.5125 41.6466 30.5246 40.8633 31.6598 39.9677C32.2885 39.4727 32.9251 38.9785 33.5696 38.4851C36.2759 36.3961 39.0511 34.2574 41.3451 31.6764C44.1269 28.5429 46.067 24.8871 46.067 20.1459C46.067 15.506 43.4449 11.6107 39.8647 9.97493C36.3859 8.38444 31.7116 8.80527 27.2703 13.4214C27.1193 13.578 26.9383 13.7026 26.738 13.7877C26.5378 13.8728 26.3225 13.9167 26.1049 13.9167C25.8873 13.9167 25.672 13.8728 25.4718 13.7877C25.2716 13.7026 25.0905 13.578 24.9396 13.4214C20.4983 8.80527 15.8239 8.38444 12.3451 9.97493ZM26.1049 10.0526C21.1155 5.58544 15.5283 4.9596 10.9985 7.02918C6.22054 9.21961 2.90576 14.2954 2.90576 20.148C2.90576 25.8993 5.30121 30.2888 8.4455 33.828C10.9618 36.6615 14.0414 39.0332 16.7627 41.1265C17.3813 41.6013 17.9755 42.0631 18.5452 42.512C19.6523 43.3839 20.8392 44.3118 22.0413 45.0154C23.2433 45.7189 24.6159 46.2886 26.1049 46.2886C27.594 46.2886 28.9665 45.7167 30.1685 45.0154C31.3727 44.3118 32.5575 43.3839 33.6646 42.512C34.2343 42.0631 34.8285 41.6013 35.4472 41.1265C38.1663 39.0332 41.248 36.6594 43.7643 33.828C46.9086 30.2888 49.3041 25.8993 49.3041 20.148C49.3041 14.2954 45.9914 9.21961 41.2113 7.0335C36.6816 4.96176 31.0943 5.5876 26.1049 10.0526Z" fill="url(#paint0_linear_0_11951)"/>
<defs>
<linearGradient id="paint0_linear_0_11951" x1="18.5754" y1="73.5962" x2="59.2211" y2="43.1266" gradientUnits="userSpaceOnUse">
<stop stop-color="#7D7AED"/>
<stop offset="1" stop-color="#C3C1FF"/>
</linearGradient>
</defs>
</svg>
