<svg width="48" height="48" viewBox="0 0 48 48" fill="none" xmlns="http://www.w3.org/2000/svg">
<path d="M42.4209 28.5098L38.4207 24.5096V19.2104C38.4161 15.5484 37.0539 12.0181 34.5973 9.30229C32.1408 6.58644 28.7644 4.87792 25.1212 4.50711V1.47778H22.1658V4.50711C18.5226 4.87792 15.1462 6.58644 12.6897 9.30229C10.2331 12.0181 8.87085 15.5484 8.86627 19.2104V24.5096L4.86608 28.5098C4.58893 28.7868 4.43319 29.1626 4.43311 29.5545V33.9877C4.43311 34.3796 4.58879 34.7555 4.86592 35.0326C5.14305 35.3097 5.51891 35.4654 5.91083 35.4654H16.2549V36.6136C16.2221 38.4884 16.8826 40.3094 18.1098 41.7272C19.337 43.145 21.0444 44.0599 22.9046 44.2963C23.9319 44.3981 24.9691 44.2839 25.9496 43.9608C26.9301 43.6378 27.8321 43.1131 28.5976 42.4205C29.3631 41.7279 29.9752 40.8828 30.3945 39.9394C30.8138 38.9961 31.031 37.9754 31.0321 36.9431V35.4654H41.3762C41.7681 35.4654 42.1439 35.3097 42.4211 35.0326C42.6982 34.7555 42.8539 34.3796 42.8539 33.9877V29.5545C42.8538 29.1626 42.6981 28.7868 42.4209 28.5098ZM28.0767 36.9431C28.0767 38.1189 27.6096 39.2465 26.7782 40.0778C25.9468 40.9092 24.8192 41.3763 23.6435 41.3763C22.4677 41.3763 21.3402 40.9092 20.5088 40.0778C19.6774 39.2465 19.2103 38.1189 19.2103 36.9431V35.4654H28.0767V36.9431ZM39.8984 32.5099H7.38855V30.1663L11.3887 26.1661C11.6659 25.889 11.8216 25.5132 11.8217 25.1213V19.2104C11.8217 16.0751 13.0672 13.0682 15.2842 10.8512C17.5012 8.63418 20.5082 7.38867 23.6435 7.38867C26.7788 7.38867 29.7857 8.63418 32.0028 10.8512C34.2198 13.0682 35.4653 16.0751 35.4653 19.2104V25.1213C35.4654 25.5132 35.6211 25.889 35.8982 26.1661L39.8984 30.1663V32.5099Z" fill="url(#paint0_linear_0_11963)"/>
<defs>
<linearGradient id="paint0_linear_0_11963" x1="17.4086" y1="73.304" x2="56.5725" y2="50.3893" gradientUnits="userSpaceOnUse">
<stop stop-color="#7D7AED"/>
<stop offset="1" stop-color="#C3C1FF"/>
</linearGradient>
</defs>
</svg>
