<svg width="281" height="27" viewBox="0 0 281 27" fill="none" xmlns="http://www.w3.org/2000/svg">
<path d="M1.82812 23.8182C32.6881 22.7773 64.3673 14.3843 94.4535 4.41594C101.622 2.04079 85.5162 20.2649 83.4129 22.8764C80.8537 26.0538 83.3774 25.245 85.7879 24.7601C100.262 21.8485 114.628 18.0443 128.923 13.6462C140.878 9.96803 152.888 6.91365 164.869 3.47408C166.568 2.98653 172.051 0.0676688 168.849 5.16943C165.613 10.3244 162.363 19.8967 158.45 23.7241C157.703 24.4551 160.189 24.7173 161.082 24.5717C177.373 21.9157 193.585 19.023 209.802 15.4357C223.667 12.3688 237.153 9.87792 251.011 8.18338C260.328 7.04424 270.05 6.80352 279.126 3.47408" stroke="white" stroke-width="3" stroke-linecap="round"/>
</svg>
